{"glyphs":{"0":{"ha":712,"x_min":68,"x_max":712,"o":"m 393 678 q 271 543 271 678 l 271 339 q 393 203 271 203 q 509 339 509 203 l 509 543 q 393 678 509 678 m 393 882 q 712 543 712 882 l 712 339 q 393 0 712 0 q 68 339 68 0 l 68 543 q 393 882 68 882 z "},"1":{"ha":373,"x_min":68,"x_max":373,"o":"m 373 0 l 170 0 l 170 678 l 68 678 l 88 882 l 373 882 l 373 0 z "},"2":{"ha":678,"x_min":68,"x_max":678,"o":"m 68 0 l 68 271 q 339 543 68 543 l 407 543 q 475 610 475 543 q 407 678 475 678 l 102 678 l 122 882 l 407 882 q 678 610 678 882 q 407 339 678 339 l 339 339 q 271 271 271 339 l 271 203 l 678 203 l 678 0 l 68 0 z "},"3":{"ha":678,"x_min":68,"x_max":678,"o":"m 170 543 l 407 543 q 475 610 475 543 q 407 678 475 678 l 68 678 l 88 882 l 407 882 q 678 610 678 882 q 547 441 678 475 q 678 271 678 407 q 407 0 678 0 l 88 0 l 68 203 l 407 203 q 475 271 475 203 q 407 339 475 339 l 170 339 l 170 543 z "},"4":{"ha":678,"x_min":68,"x_max":678,"o":"m 271 882 l 271 543 q 339 475 271 475 l 475 475 l 475 882 l 678 882 l 678 0 l 475 0 l 475 271 l 339 271 q 68 543 68 271 l 68 882 l 271 882 z "},"5":{"ha":678,"x_min":68,"x_max":678,"o":"m 88 0 l 68 203 l 407 203 q 475 271 475 203 q 407 339 475 339 l 68 339 l 68 882 l 644 882 l 644 678 l 271 678 l 271 543 l 407 543 q 678 271 678 543 q 407 0 678 0 l 88 0 z "},"6":{"ha":712,"x_min":68,"x_max":712,"o":"m 271 339 l 271 271 q 339 203 271 203 l 441 203 q 509 271 509 203 q 441 339 509 339 l 271 339 m 441 543 q 712 271 712 543 q 441 0 712 0 l 339 0 q 68 271 68 0 l 68 543 q 407 882 68 882 l 658 882 l 678 678 l 407 678 q 271 543 271 678 l 441 543 z "},"7":{"ha":644,"x_min":68,"x_max":644,"o":"m 644 882 l 644 678 l 373 0 l 136 0 l 407 678 l 68 678 l 68 882 l 644 882 z "},"8":{"ha":737,"x_min":68,"x_max":737,"o":"m 374 543 l 452 543 q 520 610 520 556 q 452 678 520 665 l 375 678 l 375 882 l 452 882 q 724 644 724 882 q 593 441 724 468 q 737 237 737 414 q 466 0 737 0 l 374 0 l 374 203 l 466 203 q 534 271 534 217 q 466 339 534 326 l 374 339 l 374 543 m 431 339 l 339 339 q 271 271 271 326 q 339 203 271 217 l 431 203 l 432 0 l 339 0 q 68 237 68 0 q 212 441 68 414 q 81 644 81 468 q 352 882 81 882 l 430 882 l 430 678 l 353 678 q 285 610 285 665 q 353 543 285 556 l 431 543 l 431 339 z "},"9":{"ha":712,"x_min":68,"x_max":712,"o":"m 509 543 l 509 610 q 441 678 509 678 l 339 678 q 271 610 271 678 q 339 543 271 543 l 509 543 m 339 339 q 68 610 68 339 q 339 882 68 882 l 441 882 q 712 610 712 882 l 712 339 q 373 0 712 0 l 122 0 l 102 203 l 373 203 q 509 339 509 203 l 339 339 z "}," ":{"ha":271,"x_min":0,"x_max":0,"o":""},"!":{"ha":271,"x_min":68,"x_max":271,"o":"m 68 271 l 68 882 l 271 882 l 271 271 l 68 271 m 271 203 l 271 0 l 68 0 l 68 203 l 271 203 z "},"\"":{"ha":543,"x_min":68,"x_max":543,"o":"m 136 678 l 68 678 l 68 882 l 271 882 l 271 746 q 136 475 271 543 l 68 543 q 136 678 136 610 m 407 678 l 339 678 l 339 882 l 543 882 l 543 746 q 407 475 543 543 l 339 543 q 407 678 407 610 z "},"$":{"ha":678,"x_min":68,"x_max":678,"o":"m 88 0 l 68 203 l 407 203 q 475 271 475 203 q 407 339 475 339 l 339 339 q 68 610 68 339 q 339 882 68 882 l 624 882 l 644 678 l 339 678 q 271 610 271 678 q 339 543 271 543 l 407 543 q 678 271 678 543 q 407 0 678 0 l 88 0 m 441 1017 l 441 779 l 305 779 l 305 1017 l 441 1017 m 441 68 l 441 -170 l 305 -170 l 305 68 l 441 68 z "},"&":{"ha":712,"x_min":68,"x_max":712,"o":"m 441 339 l 339 339 q 271 271 271 339 q 339 203 271 203 l 509 203 l 509 543 l 712 543 l 712 0 l 339 0 q 68 271 68 0 q 199 441 68 407 q 68 610 68 475 q 339 882 68 882 l 658 882 l 678 678 l 339 678 q 271 610 271 678 q 339 543 271 543 l 441 543 l 441 339 z "},"'":{"ha":271,"x_min":68,"x_max":271,"o":"m 136 678 l 68 678 l 68 882 l 271 882 l 271 746 q 136 475 271 543 l 68 543 q 136 678 136 610 z "},"(":{"ha":509,"x_min":68,"x_max":509,"o":"m 271 441 q 509 203 271 203 l 488 0 q 68 441 68 0 q 488 882 68 882 l 509 678 q 271 441 271 678 z "},")":{"ha":509,"x_min":68,"x_max":509,"o":"m 305 441 q 68 678 305 678 l 88 882 q 509 441 509 882 q 88 0 509 0 l 68 203 q 305 441 305 203 z "},",":{"ha":271,"x_min":68,"x_max":271,"o":"m 136 0 l 68 0 l 68 203 l 271 203 l 271 68 q 136 -203 271 -136 l 68 -136 q 136 0 136 -68 z "},"-":{"ha":441,"x_min":68,"x_max":441,"o":"m 68 509 l 441 509 l 441 305 l 68 305 l 68 509 z "},".":{"ha":271,"x_min":68,"x_max":271,"o":"m 271 203 l 271 0 l 68 0 l 68 203 l 271 203 z "},":":{"ha":271,"x_min":68,"x_max":271,"o":"m 271 203 l 271 0 l 68 0 l 68 203 l 271 203 m 271 678 l 271 475 l 68 475 l 68 678 l 271 678 z "},";":{"ha":271,"x_min":68,"x_max":271,"o":"m 136 0 l 68 0 l 68 203 l 271 203 l 271 68 q 136 -203 271 -136 l 68 -136 q 136 0 136 -68 m 271 678 l 271 475 l 68 475 l 68 678 l 271 678 z "},"?":{"ha":644,"x_min":68,"x_max":644,"o":"m 170 271 l 170 339 q 373 543 170 543 q 441 610 441 543 q 373 678 441 678 l 68 678 l 88 882 l 373 882 q 644 610 644 882 q 441 339 644 359 q 373 271 373 339 l 170 271 m 373 203 l 373 0 l 170 0 l 170 203 l 373 203 z "},"A":{"ha":712,"x_min":68,"x_max":712,"o":"m 393 678 q 271 543 271 678 l 271 407 l 509 407 l 509 543 q 393 678 509 678 m 393 882 q 712 543 712 882 l 712 0 l 509 0 l 509 203 l 271 203 l 271 0 l 68 0 l 68 543 q 393 882 68 882 z "},"B":{"ha":712,"x_min":68,"x_max":712,"o":"m 441 543 q 509 610 509 543 q 441 678 509 678 l 271 678 l 271 543 l 441 543 m 441 203 q 509 271 509 203 q 441 339 509 339 l 271 339 l 271 203 l 441 203 m 68 0 l 68 882 l 441 882 q 712 610 712 882 q 581 441 712 475 q 712 271 712 407 q 441 0 712 0 l 68 0 z "},"C":{"ha":610,"x_min":68,"x_max":610,"o":"m 509 203 l 610 203 l 590 0 l 509 0 q 68 441 68 0 q 509 882 68 882 l 590 882 l 610 678 l 509 678 q 271 441 271 678 q 509 203 271 203 z "},"D":{"ha":712,"x_min":68,"x_max":712,"o":"m 271 678 l 271 203 q 509 441 509 203 q 271 678 509 678 m 271 882 q 712 441 712 882 q 271 0 712 0 l 68 0 l 68 882 l 271 882 z "},"E":{"ha":610,"x_min":68,"x_max":610,"o":"m 590 882 l 610 678 l 271 678 l 271 543 l 543 543 l 543 339 l 271 339 l 271 203 l 610 203 l 590 0 l 68 0 l 68 882 l 590 882 z "},"F":{"ha":610,"x_min":68,"x_max":610,"o":"m 590 882 l 610 678 l 271 678 l 271 509 l 543 509 l 543 305 l 271 305 l 271 0 l 68 0 l 68 882 l 590 882 z "},"G":{"ha":746,"x_min":68,"x_max":746,"o":"m 509 203 l 543 203 l 543 543 l 746 543 l 746 0 l 509 0 q 68 441 68 0 q 509 882 68 882 l 590 882 l 610 678 l 509 678 q 271 441 271 678 q 509 203 271 203 z "},"H":{"ha":712,"x_min":68,"x_max":712,"o":"m 271 543 l 509 543 l 509 882 l 712 882 l 712 0 l 509 0 l 509 339 l 271 339 l 271 0 l 68 0 l 68 882 l 271 882 l 271 543 z "},"I":{"ha":271,"x_min":68,"x_max":271,"o":"m 271 882 l 271 0 l 68 0 l 68 882 l 271 882 z "},"J":{"ha":509,"x_min":68,"x_max":509,"o":"m 509 882 l 509 339 q 170 0 509 0 l 88 0 l 68 203 l 170 203 q 305 339 305 203 l 305 882 l 509 882 z "},"K":{"ha":726,"x_min":68,"x_max":726,"o":"m 271 522 l 475 882 l 726 882 l 461 441 l 726 0 l 475 0 l 271 359 l 271 0 l 68 0 l 68 882 l 271 882 l 271 522 z "},"L":{"ha":610,"x_min":68,"x_max":610,"o":"m 68 0 l 68 882 l 271 882 l 271 203 l 610 203 l 590 0 l 68 0 z "},"M":{"ha":1085,"x_min":68,"x_max":1085,"o":"m 780 678 q 678 576 678 678 l 678 0 l 475 0 l 475 576 q 373 678 475 678 q 271 576 271 678 l 271 0 l 68 0 l 68 576 q 373 882 68 882 q 576 780 543 882 q 780 882 610 882 q 1085 576 1085 882 l 1085 0 l 882 0 l 882 576 q 780 678 882 678 z "},"N":{"ha":712,"x_min":68,"x_max":712,"o":"m 509 543 q 393 678 509 678 q 271 543 271 678 l 271 0 l 68 0 l 68 543 q 393 882 68 882 q 712 543 712 882 l 712 0 l 509 0 l 509 543 z "},"O":{"ha":848,"x_min":68,"x_max":848,"o":"m 461 678 q 271 441 271 678 q 461 203 271 203 q 644 441 644 203 q 461 678 644 678 m 461 882 q 848 441 848 882 q 461 0 848 0 q 68 441 68 0 q 461 882 68 882 z "},"P":{"ha":712,"x_min":68,"x_max":712,"o":"m 407 882 q 712 576 712 882 q 407 271 712 271 l 271 271 l 271 0 l 68 0 l 68 882 l 407 882 m 271 475 l 407 475 q 509 576 509 475 q 407 678 509 678 l 271 678 l 271 475 z "},"Q":{"ha":848,"x_min":68,"x_max":848,"o":"m 461 678 q 271 441 271 678 q 461 203 271 203 q 644 441 644 203 q 461 678 644 678 m 461 882 q 848 441 848 882 q 461 0 848 0 q 68 441 68 0 q 461 882 68 882 m 503 136 l 740 136 l 842 -75 l 672 -170 l 503 136 z "},"R":{"ha":712,"x_min":68,"x_max":712,"o":"m 271 475 l 407 475 q 509 576 509 475 q 407 678 509 678 l 271 678 l 271 475 m 407 882 q 712 576 712 882 q 597 319 712 373 l 712 0 l 488 0 l 407 271 l 271 271 l 271 0 l 68 0 l 68 882 l 407 882 z "},"S":{"ha":678,"x_min":68,"x_max":678,"o":"m 88 0 l 68 203 l 407 203 q 475 271 475 203 q 407 339 475 339 l 339 339 q 68 610 68 339 q 339 882 68 882 l 624 882 l 644 678 l 339 678 q 271 610 271 678 q 339 543 271 543 l 407 543 q 678 271 678 543 q 407 0 678 0 l 88 0 z "},"T":{"ha":678,"x_min":68,"x_max":678,"o":"m 678 882 l 678 678 l 475 678 l 475 0 l 271 0 l 271 678 l 68 678 l 68 882 l 678 882 z "},"U":{"ha":712,"x_min":68,"x_max":712,"o":"m 509 882 l 712 882 l 712 339 q 393 0 712 0 q 68 339 68 0 l 68 882 l 271 882 l 271 339 q 393 203 271 203 q 509 339 509 203 l 509 882 z "},"V":{"ha":712,"x_min":68,"x_max":712,"o":"m 509 882 l 712 882 l 712 407 q 326 0 712 0 l 68 0 l 68 882 l 271 882 l 271 203 l 326 203 q 509 407 509 203 l 509 882 z "},"W":{"ha":1085,"x_min":68,"x_max":1085,"o":"m 373 203 q 475 305 475 203 l 475 882 l 678 882 l 678 305 q 780 203 678 203 q 882 305 882 203 l 882 882 l 1085 882 l 1085 305 q 780 0 1085 0 q 576 102 610 0 q 373 0 543 0 q 68 305 68 0 l 68 882 l 271 882 l 271 305 q 373 203 271 203 z "},"X":{"ha":712,"x_min":68,"x_max":712,"o":"m 271 644 q 373 543 271 543 l 407 543 q 509 644 509 543 l 509 882 l 712 882 l 712 644 q 610 441 712 475 q 712 237 712 407 l 712 0 l 509 0 l 509 237 q 407 339 509 339 l 373 339 q 271 237 271 339 l 271 0 l 68 0 l 68 237 q 170 441 68 407 q 68 644 68 475 l 68 882 l 271 882 l 271 644 z "},"Y":{"ha":712,"x_min":68,"x_max":712,"o":"m 271 644 q 373 543 271 543 l 407 543 q 509 644 509 543 l 509 882 l 712 882 l 712 644 q 495 339 712 373 l 495 0 l 292 0 l 292 339 q 68 644 68 373 l 68 882 l 271 882 l 271 644 z "},"Z":{"ha":644,"x_min":68,"x_max":644,"o":"m 644 882 l 644 678 l 305 203 l 644 203 l 644 0 l 68 0 l 68 203 l 407 678 l 88 678 l 109 882 l 644 882 z "},"[":{"ha":407,"x_min":68,"x_max":407,"o":"m 407 678 l 271 678 l 271 203 l 407 203 l 407 0 l 68 0 l 68 882 l 407 882 l 407 678 z "},"]":{"ha":407,"x_min":68,"x_max":407,"o":"m 68 203 l 203 203 l 203 678 l 68 678 l 68 882 l 407 882 l 407 0 l 68 0 l 68 203 z "},"`":{"ha":305,"x_min":68,"x_max":305,"o":"m 136 949 l 68 1153 l 271 1153 l 305 949 l 136 949 z "},"a":{"ha":712,"x_min":68,"x_max":712,"o":"m 393 678 q 271 543 271 678 l 271 407 l 509 407 l 509 543 q 393 678 509 678 m 393 882 q 712 543 712 882 l 712 0 l 509 0 l 509 203 l 271 203 l 271 0 l 68 0 l 68 543 q 393 882 68 882 z "},"b":{"ha":712,"x_min":68,"x_max":712,"o":"m 441 543 q 509 610 509 543 q 441 678 509 678 l 271 678 l 271 543 l 441 543 m 441 203 q 509 271 509 203 q 441 339 509 339 l 271 339 l 271 203 l 441 203 m 68 0 l 68 882 l 441 882 q 712 610 712 882 q 581 441 712 475 q 712 271 712 407 q 441 0 712 0 l 68 0 z "},"c":{"ha":610,"x_min":68,"x_max":610,"o":"m 509 203 l 610 203 l 590 0 l 509 0 q 68 441 68 0 q 509 882 68 882 l 590 882 l 610 678 l 509 678 q 271 441 271 678 q 509 203 271 203 z "},"d":{"ha":712,"x_min":68,"x_max":712,"o":"m 271 678 l 271 203 q 509 441 509 203 q 271 678 509 678 m 271 882 q 712 441 712 882 q 271 0 712 0 l 68 0 l 68 882 l 271 882 z "},"e":{"ha":610,"x_min":68,"x_max":610,"o":"m 590 882 l 610 678 l 271 678 l 271 543 l 543 543 l 543 339 l 271 339 l 271 203 l 610 203 l 590 0 l 68 0 l 68 882 l 590 882 z "},"f":{"ha":610,"x_min":68,"x_max":610,"o":"m 590 882 l 610 678 l 271 678 l 271 509 l 543 509 l 543 305 l 271 305 l 271 0 l 68 0 l 68 882 l 590 882 z "},"g":{"ha":746,"x_min":68,"x_max":746,"o":"m 509 203 l 543 203 l 543 543 l 746 543 l 746 0 l 509 0 q 68 441 68 0 q 509 882 68 882 l 590 882 l 610 678 l 509 678 q 271 441 271 678 q 509 203 271 203 z "},"h":{"ha":712,"x_min":68,"x_max":712,"o":"m 271 543 l 509 543 l 509 882 l 712 882 l 712 0 l 509 0 l 509 339 l 271 339 l 271 0 l 68 0 l 68 882 l 271 882 l 271 543 z "},"i":{"ha":271,"x_min":68,"x_max":271,"o":"m 271 882 l 271 0 l 68 0 l 68 882 l 271 882 z "},"j":{"ha":509,"x_min":68,"x_max":509,"o":"m 509 882 l 509 339 q 170 0 509 0 l 88 0 l 68 203 l 170 203 q 305 339 305 203 l 305 882 l 509 882 z "},"k":{"ha":726,"x_min":68,"x_max":726,"o":"m 271 522 l 475 882 l 726 882 l 461 441 l 726 0 l 475 0 l 271 359 l 271 0 l 68 0 l 68 882 l 271 882 l 271 522 z "},"l":{"ha":610,"x_min":68,"x_max":610,"o":"m 68 0 l 68 882 l 271 882 l 271 203 l 610 203 l 590 0 l 68 0 z "},"m":{"ha":1085,"x_min":68,"x_max":1085,"o":"m 780 678 q 678 576 678 678 l 678 0 l 475 0 l 475 576 q 373 678 475 678 q 271 576 271 678 l 271 0 l 68 0 l 68 576 q 373 882 68 882 q 576 780 543 882 q 780 882 610 882 q 1085 576 1085 882 l 1085 0 l 882 0 l 882 576 q 780 678 882 678 z "},"n":{"ha":712,"x_min":68,"x_max":712,"o":"m 509 543 q 393 678 509 678 q 271 543 271 678 l 271 0 l 68 0 l 68 543 q 393 882 68 882 q 712 543 712 882 l 712 0 l 509 0 l 509 543 z "},"o":{"ha":848,"x_min":68,"x_max":848,"o":"m 461 678 q 271 441 271 678 q 461 203 271 203 q 644 441 644 203 q 461 678 644 678 m 461 882 q 848 441 848 882 q 461 0 848 0 q 68 441 68 0 q 461 882 68 882 z "},"p":{"ha":712,"x_min":68,"x_max":712,"o":"m 407 882 q 712 576 712 882 q 407 271 712 271 l 271 271 l 271 0 l 68 0 l 68 882 l 407 882 m 271 475 l 407 475 q 509 576 509 475 q 407 678 509 678 l 271 678 l 271 475 z "},"q":{"ha":848,"x_min":68,"x_max":848,"o":"m 461 678 q 271 441 271 678 q 461 203 271 203 q 644 441 644 203 q 461 678 644 678 m 461 882 q 848 441 848 882 q 461 0 848 0 q 68 441 68 0 q 461 882 68 882 m 503 136 l 740 136 l 842 -75 l 672 -170 l 503 136 z "},"r":{"ha":712,"x_min":68,"x_max":712,"o":"m 271 475 l 407 475 q 509 576 509 475 q 407 678 509 678 l 271 678 l 271 475 m 407 882 q 712 576 712 882 q 597 319 712 373 l 712 0 l 488 0 l 407 271 l 271 271 l 271 0 l 68 0 l 68 882 l 407 882 z "},"s":{"ha":678,"x_min":68,"x_max":678,"o":"m 88 0 l 68 203 l 407 203 q 475 271 475 203 q 407 339 475 339 l 339 339 q 68 610 68 339 q 339 882 68 882 l 624 882 l 644 678 l 339 678 q 271 610 271 678 q 339 543 271 543 l 407 543 q 678 271 678 543 q 407 0 678 0 l 88 0 z "},"t":{"ha":678,"x_min":68,"x_max":678,"o":"m 678 882 l 678 678 l 475 678 l 475 0 l 271 0 l 271 678 l 68 678 l 68 882 l 678 882 z "},"u":{"ha":712,"x_min":68,"x_max":712,"o":"m 509 882 l 712 882 l 712 339 q 393 0 712 0 q 68 339 68 0 l 68 882 l 271 882 l 271 339 q 393 203 271 203 q 509 339 509 203 l 509 882 z "},"v":{"ha":712,"x_min":68,"x_max":712,"o":"m 509 882 l 712 882 l 712 407 q 326 0 712 0 l 68 0 l 68 882 l 271 882 l 271 203 l 326 203 q 509 407 509 203 l 509 882 z "},"w":{"ha":1085,"x_min":68,"x_max":1085,"o":"m 373 203 q 475 305 475 203 l 475 882 l 678 882 l 678 305 q 780 203 678 203 q 882 305 882 203 l 882 882 l 1085 882 l 1085 305 q 780 0 1085 0 q 576 102 610 0 q 373 0 543 0 q 68 305 68 0 l 68 882 l 271 882 l 271 305 q 373 203 271 203 z "},"x":{"ha":712,"x_min":68,"x_max":712,"o":"m 271 644 q 373 543 271 543 l 407 543 q 509 644 509 543 l 509 882 l 712 882 l 712 644 q 610 441 712 475 q 712 237 712 407 l 712 0 l 509 0 l 509 237 q 407 339 509 339 l 373 339 q 271 237 271 339 l 271 0 l 68 0 l 68 237 q 170 441 68 407 q 68 644 68 475 l 68 882 l 271 882 l 271 644 z "},"y":{"ha":712,"x_min":68,"x_max":712,"o":"m 271 644 q 373 543 271 543 l 407 543 q 509 644 509 543 l 509 882 l 712 882 l 712 644 q 495 339 712 373 l 495 0 l 292 0 l 292 339 q 68 644 68 373 l 68 882 l 271 882 l 271 644 z "},"z":{"ha":644,"x_min":68,"x_max":644,"o":"m 644 882 l 644 678 l 305 203 l 644 203 l 644 0 l 68 0 l 68 203 l 407 678 l 88 678 l 109 882 l 644 882 z "}," ":{"ha":271,"x_min":0,"x_max":0,"o":""},"¡":{"ha":271,"x_min":68,"x_max":271,"o":"m 271 610 l 271 0 l 68 0 l 68 610 l 271 610 m 68 678 l 68 882 l 271 882 l 271 678 l 68 678 z "},"£":{"ha":610,"x_min":68,"x_max":610,"o":"m 68 0 l 68 203 l 136 203 l 136 339 l 68 339 l 68 543 l 136 543 q 475 882 136 882 l 590 882 l 610 678 l 475 678 q 339 543 339 678 l 576 543 l 576 339 l 339 339 l 339 203 l 610 203 l 590 0 l 68 0 z "},"¨":{"ha":610,"x_min":68,"x_max":610,"o":"m 271 1153 l 271 949 l 68 949 l 68 1153 l 271 1153 m 610 1153 l 610 949 l 407 949 l 407 1153 l 610 1153 z "},"´":{"ha":305,"x_min":68,"x_max":305,"o":"m 68 949 l 102 1153 l 305 1153 l 237 949 l 68 949 z "},"·":{"ha":271,"x_min":68,"x_max":271,"o":"m 68 509 l 271 509 l 271 305 l 68 305 l 68 509 z "},"¸":{"ha":305,"x_min":68,"x_max":305,"o":"m 305 -68 l 271 -271 l 68 -271 l 136 -68 l 305 -68 z "},"¿":{"ha":644,"x_min":68,"x_max":644,"o":"m 543 610 l 543 543 q 339 339 543 339 q 271 271 271 339 q 339 203 271 203 l 644 203 l 624 0 l 339 0 q 68 271 68 0 q 271 543 68 522 q 339 610 339 543 l 543 610 m 339 678 l 339 882 l 543 882 l 543 678 l 339 678 z "},"À":{"ha":712,"x_min":68,"x_max":712,"o":"m 393 678 q 271 543 271 678 l 271 407 l 509 407 l 509 543 q 393 678 509 678 m 393 882 q 712 543 712 882 l 712 0 l 509 0 l 509 203 l 271 203 l 271 0 l 68 0 l 68 543 q 393 882 68 882 m 300 949 l 232 1153 l 435 1153 l 469 949 l 300 949 z "},"Á":{"ha":712,"x_min":68,"x_max":712,"o":"m 393 678 q 271 543 271 678 l 271 407 l 509 407 l 509 543 q 393 678 509 678 m 393 882 q 712 543 712 882 l 712 0 l 509 0 l 509 203 l 271 203 l 271 0 l 68 0 l 68 543 q 393 882 68 882 m 311 949 l 345 1153 l 548 1153 l 480 949 l 311 949 z "},"Â":{"ha":712,"x_min":68,"x_max":712,"o":"m 393 678 q 271 543 271 678 l 271 407 l 509 407 l 509 543 q 393 678 509 678 m 393 882 q 712 543 712 882 l 712 0 l 509 0 l 509 203 l 271 203 l 271 0 l 68 0 l 68 543 q 393 882 68 882 m 492 1153 l 627 949 l 458 949 l 390 1051 l 322 949 l 153 949 l 288 1153 l 492 1153 z "},"Ã":{"ha":712,"x_min":68,"x_max":712,"o":"m 393 678 q 271 543 271 678 l 271 407 l 509 407 l 509 543 q 393 678 509 678 m 393 882 q 712 543 712 882 l 712 0 l 509 0 l 509 203 l 271 203 l 271 0 l 68 0 l 68 543 q 393 882 68 882 m 136 949 q 305 1153 136 1153 q 404 1112 359 1153 q 481 1072 448 1072 q 543 1153 529 1072 l 644 1153 q 475 949 644 949 q 380 990 427 949 q 298 1031 332 1031 q 237 949 251 1031 l 136 949 z "},"Ä":{"ha":712,"x_min":68,"x_max":712,"o":"m 393 678 q 271 543 271 678 l 271 407 l 509 407 l 509 543 q 393 678 509 678 m 393 882 q 712 543 712 882 l 712 0 l 509 0 l 509 203 l 271 203 l 271 0 l 68 0 l 68 543 q 393 882 68 882 m 322 1153 l 322 949 l 119 949 l 119 1153 l 322 1153 m 661 1153 l 661 949 l 458 949 l 458 1153 l 661 1153 z "},"Å":{"ha":712,"x_min":68,"x_max":712,"o":"m 393 678 q 271 543 271 678 l 271 407 l 509 407 l 509 543 q 393 678 509 678 m 393 882 q 712 543 712 882 l 712 0 l 509 0 l 509 203 l 271 203 l 271 0 l 68 0 l 68 543 q 393 882 68 882 m 390 1153 q 510 1103 460 1153 q 559 983 559 1054 q 510 863 559 913 q 390 814 460 814 q 270 863 319 814 q 220 983 220 913 q 270 1103 220 1054 q 390 1153 319 1153 m 390 1030 q 355 1017 370 1030 q 341 983 341 1003 q 355 950 341 964 q 390 937 370 937 q 425 950 410 937 q 439 983 439 964 q 425 1017 439 1003 q 390 1030 410 1030 z "},"Æ":{"ha":1053,"x_min":68,"x_max":1053,"o":"m 543 203 l 271 203 l 271 0 l 68 0 l 68 543 q 407 882 68 882 l 543 882 l 543 678 l 407 678 q 271 543 271 678 l 271 407 l 543 407 l 543 203 m 1033 882 l 1053 678 l 714 678 l 714 543 l 985 543 l 985 339 l 714 339 l 714 203 l 1053 203 l 1033 0 l 511 0 l 511 882 l 1033 882 z "},"Ç":{"ha":610,"x_min":68,"x_max":610,"o":"m 509 203 l 610 203 l 590 0 l 509 0 q 68 441 68 0 q 509 882 68 882 l 590 882 l 610 678 l 509 678 q 271 441 271 678 q 509 203 271 203 m 526 -68 l 492 -271 l 288 -271 l 356 -68 l 526 -68 z "},"È":{"ha":610,"x_min":68,"x_max":610,"o":"m 590 882 l 610 678 l 271 678 l 271 543 l 543 543 l 543 339 l 271 339 l 271 203 l 610 203 l 590 0 l 68 0 l 68 882 l 590 882 m 249 949 l 181 1153 l 385 1153 l 418 949 l 249 949 z "},"É":{"ha":610,"x_min":68,"x_max":610,"o":"m 590 882 l 610 678 l 271 678 l 271 543 l 543 543 l 543 339 l 271 339 l 271 203 l 610 203 l 590 0 l 68 0 l 68 882 l 590 882 m 260 949 l 294 1153 l 497 1153 l 429 949 l 260 949 z "},"Ê":{"ha":610,"x_min":68,"x_max":610,"o":"m 590 882 l 610 678 l 271 678 l 271 543 l 543 543 l 543 339 l 271 339 l 271 203 l 610 203 l 590 0 l 68 0 l 68 882 l 590 882 m 441 1153 l 576 949 l 407 949 l 339 1051 l 271 949 l 102 949 l 237 1153 l 441 1153 z "},"Ë":{"ha":610,"x_min":68,"x_max":610,"o":"m 590 882 l 610 678 l 271 678 l 271 543 l 543 543 l 543 339 l 271 339 l 271 203 l 610 203 l 590 0 l 68 0 l 68 882 l 590 882 m 271 1153 l 271 949 l 68 949 l 68 1153 l 271 1153 m 610 1153 l 610 949 l 407 949 l 407 1153 l 610 1153 z "},"Ì":{"ha":271,"x_min":12,"x_max":271,"o":"m 271 882 l 271 0 l 68 0 l 68 882 l 271 882 m 79 949 l 12 1153 l 215 1153 l 249 949 l 79 949 z "},"Í":{"ha":271,"x_min":68,"x_max":328,"o":"m 271 882 l 271 0 l 68 0 l 68 882 l 271 882 m 90 949 l 124 1153 l 328 1153 l 260 949 l 90 949 z "},"Î":{"ha":271,"x_min":-68,"x_max":407,"o":"m 271 882 l 271 0 l 68 0 l 68 882 l 271 882 m 271 1153 l 407 949 l 237 949 l 170 1051 l 102 949 l -68 949 l 68 1153 l 271 1153 z "},"Ï":{"ha":271,"x_min":-102,"x_max":441,"o":"m 271 882 l 271 0 l 68 0 l 68 882 l 271 882 m 102 1153 l 102 949 l -102 949 l -102 1153 l 102 1153 m 441 1153 l 441 949 l 237 949 l 237 1153 l 441 1153 z "},"Ñ":{"ha":712,"x_min":68,"x_max":712,"o":"m 509 543 q 393 678 509 678 q 271 543 271 678 l 271 0 l 68 0 l 68 543 q 393 882 68 882 q 712 543 712 882 l 712 0 l 509 0 l 509 543 m 136 949 q 305 1153 136 1153 q 404 1112 359 1153 q 481 1072 448 1072 q 543 1153 529 1072 l 644 1153 q 475 949 644 949 q 380 990 427 949 q 298 1031 332 1031 q 237 949 251 1031 l 136 949 z "},"Ò":{"ha":848,"x_min":68,"x_max":848,"o":"m 461 678 q 271 441 271 678 q 461 203 271 203 q 644 441 644 203 q 461 678 644 678 m 461 882 q 848 441 848 882 q 461 0 848 0 q 68 441 68 0 q 461 882 68 882 m 368 949 l 300 1153 l 503 1153 l 537 949 l 368 949 z "},"Ó":{"ha":848,"x_min":68,"x_max":848,"o":"m 461 678 q 271 441 271 678 q 461 203 271 203 q 644 441 644 203 q 461 678 644 678 m 461 882 q 848 441 848 882 q 461 0 848 0 q 68 441 68 0 q 461 882 68 882 m 378 949 l 412 1153 l 616 1153 l 548 949 l 378 949 z "},"Ô":{"ha":848,"x_min":68,"x_max":848,"o":"m 461 678 q 271 441 271 678 q 461 203 271 203 q 644 441 644 203 q 461 678 644 678 m 461 882 q 848 441 848 882 q 461 0 848 0 q 68 441 68 0 q 461 882 68 882 m 559 1153 l 695 949 l 526 949 l 458 1051 l 390 949 l 220 949 l 356 1153 l 559 1153 z "},"Õ":{"ha":848,"x_min":68,"x_max":848,"o":"m 461 678 q 271 441 271 678 q 461 203 271 203 q 644 441 644 203 q 461 678 644 678 m 461 882 q 848 441 848 882 q 461 0 848 0 q 68 441 68 0 q 461 882 68 882 m 203 949 q 373 1153 203 1153 q 471 1112 427 1153 q 549 1072 515 1072 q 610 1153 597 1072 l 712 1153 q 543 949 712 949 q 448 990 495 949 q 366 1031 400 1031 q 305 949 319 1031 l 203 949 z "},"Ö":{"ha":848,"x_min":68,"x_max":848,"o":"m 461 678 q 271 441 271 678 q 461 203 271 203 q 644 441 644 203 q 461 678 644 678 m 461 882 q 848 441 848 882 q 461 0 848 0 q 68 441 68 0 q 461 882 68 882 m 390 1153 l 390 949 l 186 949 l 186 1153 l 390 1153 m 729 1153 l 729 949 l 526 949 l 526 1153 l 729 1153 z "},"Ù":{"ha":712,"x_min":68,"x_max":712,"o":"m 509 882 l 712 882 l 712 339 q 393 0 712 0 q 68 339 68 0 l 68 882 l 271 882 l 271 339 q 393 203 271 203 q 509 339 509 203 l 509 882 m 300 949 l 232 1153 l 435 1153 l 469 949 l 300 949 z "},"Ú":{"ha":712,"x_min":68,"x_max":712,"o":"m 509 882 l 712 882 l 712 339 q 393 0 712 0 q 68 339 68 0 l 68 882 l 271 882 l 271 339 q 393 203 271 203 q 509 339 509 203 l 509 882 m 311 949 l 345 1153 l 548 1153 l 480 949 l 311 949 z "},"Û":{"ha":712,"x_min":68,"x_max":712,"o":"m 509 882 l 712 882 l 712 339 q 393 0 712 0 q 68 339 68 0 l 68 882 l 271 882 l 271 339 q 393 203 271 203 q 509 339 509 203 l 509 882 m 492 1153 l 627 949 l 458 949 l 390 1051 l 322 949 l 153 949 l 288 1153 l 492 1153 z "},"Ü":{"ha":712,"x_min":68,"x_max":712,"o":"m 509 882 l 712 882 l 712 339 q 393 0 712 0 q 68 339 68 0 l 68 882 l 271 882 l 271 339 q 393 203 271 203 q 509 339 509 203 l 509 882 m 322 1153 l 322 949 l 119 949 l 119 1153 l 322 1153 m 661 1153 l 661 949 l 458 949 l 458 1153 l 661 1153 z "},"Ý":{"ha":712,"x_min":68,"x_max":712,"o":"m 271 644 q 373 543 271 543 l 407 543 q 509 644 509 543 l 509 882 l 712 882 l 712 644 q 495 339 712 373 l 495 0 l 292 0 l 292 339 q 68 644 68 373 l 68 882 l 271 882 l 271 644 m 311 949 l 345 1153 l 548 1153 l 480 949 l 311 949 z "},"ß":{"ha":1356,"x_min":68,"x_max":1356,"o":"m 88 0 l 68 203 l 407 203 q 475 271 475 203 q 407 339 475 339 l 339 339 q 68 610 68 339 q 339 882 68 882 l 624 882 l 644 678 l 339 678 q 271 610 271 678 q 339 543 271 543 l 407 543 q 678 271 678 543 q 407 0 678 0 l 88 0 m 766 0 l 746 203 l 1085 203 q 1153 271 1153 203 q 1085 339 1153 339 l 1017 339 q 746 610 746 339 q 1017 882 746 882 l 1302 882 l 1322 678 l 1017 678 q 949 610 949 678 q 1017 543 949 543 l 1085 543 q 1356 271 1356 543 q 1085 0 1356 0 l 766 0 z "},"à":{"ha":712,"x_min":68,"x_max":712,"o":"m 393 678 q 271 543 271 678 l 271 407 l 509 407 l 509 543 q 393 678 509 678 m 393 882 q 712 543 712 882 l 712 0 l 509 0 l 509 203 l 271 203 l 271 0 l 68 0 l 68 543 q 393 882 68 882 m 300 949 l 232 1153 l 435 1153 l 469 949 l 300 949 z "},"á":{"ha":712,"x_min":68,"x_max":712,"o":"m 393 678 q 271 543 271 678 l 271 407 l 509 407 l 509 543 q 393 678 509 678 m 393 882 q 712 543 712 882 l 712 0 l 509 0 l 509 203 l 271 203 l 271 0 l 68 0 l 68 543 q 393 882 68 882 m 311 949 l 345 1153 l 548 1153 l 480 949 l 311 949 z "},"â":{"ha":712,"x_min":68,"x_max":712,"o":"m 393 678 q 271 543 271 678 l 271 407 l 509 407 l 509 543 q 393 678 509 678 m 393 882 q 712 543 712 882 l 712 0 l 509 0 l 509 203 l 271 203 l 271 0 l 68 0 l 68 543 q 393 882 68 882 m 492 1153 l 627 949 l 458 949 l 390 1051 l 322 949 l 153 949 l 288 1153 l 492 1153 z "},"ã":{"ha":712,"x_min":68,"x_max":712,"o":"m 393 678 q 271 543 271 678 l 271 407 l 509 407 l 509 543 q 393 678 509 678 m 393 882 q 712 543 712 882 l 712 0 l 509 0 l 509 203 l 271 203 l 271 0 l 68 0 l 68 543 q 393 882 68 882 m 136 949 q 305 1153 136 1153 q 404 1112 359 1153 q 481 1072 448 1072 q 543 1153 529 1072 l 644 1153 q 475 949 644 949 q 380 990 427 949 q 298 1031 332 1031 q 237 949 251 1031 l 136 949 z "},"ä":{"ha":712,"x_min":68,"x_max":712,"o":"m 393 678 q 271 543 271 678 l 271 407 l 509 407 l 509 543 q 393 678 509 678 m 393 882 q 712 543 712 882 l 712 0 l 509 0 l 509 203 l 271 203 l 271 0 l 68 0 l 68 543 q 393 882 68 882 m 322 1153 l 322 949 l 119 949 l 119 1153 l 322 1153 m 661 1153 l 661 949 l 458 949 l 458 1153 l 661 1153 z "},"å":{"ha":712,"x_min":68,"x_max":712,"o":"m 393 678 q 271 543 271 678 l 271 407 l 509 407 l 509 543 q 393 678 509 678 m 393 882 q 712 543 712 882 l 712 0 l 509 0 l 509 203 l 271 203 l 271 0 l 68 0 l 68 543 q 393 882 68 882 m 390 1153 q 510 1103 460 1153 q 559 983 559 1054 q 510 863 559 913 q 390 814 460 814 q 270 863 319 814 q 220 983 220 913 q 270 1103 220 1054 q 390 1153 319 1153 m 390 1030 q 355 1017 370 1030 q 341 983 341 1003 q 355 950 341 964 q 390 937 370 937 q 425 950 410 937 q 439 983 439 964 q 425 1017 439 1003 q 390 1030 410 1030 z "},"æ":{"ha":1053,"x_min":68,"x_max":1053,"o":"m 543 203 l 271 203 l 271 0 l 68 0 l 68 543 q 407 882 68 882 l 543 882 l 543 678 l 407 678 q 271 543 271 678 l 271 407 l 543 407 l 543 203 m 1033 882 l 1053 678 l 714 678 l 714 543 l 985 543 l 985 339 l 714 339 l 714 203 l 1053 203 l 1033 0 l 511 0 l 511 882 l 1033 882 z "},"ç":{"ha":610,"x_min":68,"x_max":610,"o":"m 509 203 l 610 203 l 590 0 l 509 0 q 68 441 68 0 q 509 882 68 882 l 590 882 l 610 678 l 509 678 q 271 441 271 678 q 509 203 271 203 m 526 -68 l 492 -271 l 288 -271 l 356 -68 l 526 -68 z "},"è":{"ha":610,"x_min":68,"x_max":610,"o":"m 590 882 l 610 678 l 271 678 l 271 543 l 543 543 l 543 339 l 271 339 l 271 203 l 610 203 l 590 0 l 68 0 l 68 882 l 590 882 m 249 949 l 181 1153 l 385 1153 l 418 949 l 249 949 z "},"é":{"ha":610,"x_min":68,"x_max":610,"o":"m 590 882 l 610 678 l 271 678 l 271 543 l 543 543 l 543 339 l 271 339 l 271 203 l 610 203 l 590 0 l 68 0 l 68 882 l 590 882 m 260 949 l 294 1153 l 497 1153 l 429 949 l 260 949 z "},"ê":{"ha":610,"x_min":68,"x_max":610,"o":"m 590 882 l 610 678 l 271 678 l 271 543 l 543 543 l 543 339 l 271 339 l 271 203 l 610 203 l 590 0 l 68 0 l 68 882 l 590 882 m 441 1153 l 576 949 l 407 949 l 339 1051 l 271 949 l 102 949 l 237 1153 l 441 1153 z "},"ë":{"ha":610,"x_min":68,"x_max":610,"o":"m 590 882 l 610 678 l 271 678 l 271 543 l 543 543 l 543 339 l 271 339 l 271 203 l 610 203 l 590 0 l 68 0 l 68 882 l 590 882 m 271 1153 l 271 949 l 68 949 l 68 1153 l 271 1153 m 610 1153 l 610 949 l 407 949 l 407 1153 l 610 1153 z "},"ì":{"ha":271,"x_min":12,"x_max":271,"o":"m 79 949 l 12 1153 l 215 1153 l 249 949 l 79 949 z "},"í":{"ha":271,"x_min":68,"x_max":328,"o":"m 90 949 l 124 1153 l 328 1153 l 260 949 l 90 949 z "},"î":{"ha":271,"x_min":-68,"x_max":407,"o":"m 271 1153 l 407 949 l 237 949 l 170 1051 l 102 949 l -68 949 l 68 1153 l 271 1153 z "},"ï":{"ha":271,"x_min":-102,"x_max":441,"o":"m 102 1153 l 102 949 l -102 949 l -102 1153 l 102 1153 m 441 1153 l 441 949 l 237 949 l 237 1153 l 441 1153 z "},"ñ":{"ha":712,"x_min":68,"x_max":712,"o":"m 509 543 q 393 678 509 678 q 271 543 271 678 l 271 0 l 68 0 l 68 543 q 393 882 68 882 q 712 543 712 882 l 712 0 l 509 0 l 509 543 m 136 949 q 305 1153 136 1153 q 404 1112 359 1153 q 481 1072 448 1072 q 543 1153 529 1072 l 644 1153 q 475 949 644 949 q 380 990 427 949 q 298 1031 332 1031 q 237 949 251 1031 l 136 949 z "},"ò":{"ha":848,"x_min":68,"x_max":848,"o":"m 461 678 q 271 441 271 678 q 461 203 271 203 q 644 441 644 203 q 461 678 644 678 m 461 882 q 848 441 848 882 q 461 0 848 0 q 68 441 68 0 q 461 882 68 882 m 368 949 l 300 1153 l 503 1153 l 537 949 l 368 949 z "},"ó":{"ha":848,"x_min":68,"x_max":848,"o":"m 461 678 q 271 441 271 678 q 461 203 271 203 q 644 441 644 203 q 461 678 644 678 m 461 882 q 848 441 848 882 q 461 0 848 0 q 68 441 68 0 q 461 882 68 882 m 378 949 l 412 1153 l 616 1153 l 548 949 l 378 949 z "},"ô":{"ha":848,"x_min":68,"x_max":848,"o":"m 461 678 q 271 441 271 678 q 461 203 271 203 q 644 441 644 203 q 461 678 644 678 m 461 882 q 848 441 848 882 q 461 0 848 0 q 68 441 68 0 q 461 882 68 882 m 559 1153 l 695 949 l 526 949 l 458 1051 l 390 949 l 220 949 l 356 1153 l 559 1153 z "},"õ":{"ha":848,"x_min":68,"x_max":848,"o":"m 461 678 q 271 441 271 678 q 461 203 271 203 q 644 441 644 203 q 461 678 644 678 m 461 882 q 848 441 848 882 q 461 0 848 0 q 68 441 68 0 q 461 882 68 882 m 203 949 q 373 1153 203 1153 q 471 1112 427 1153 q 549 1072 515 1072 q 610 1153 597 1072 l 712 1153 q 543 949 712 949 q 448 990 495 949 q 366 1031 400 1031 q 305 949 319 1031 l 203 949 z "},"ö":{"ha":848,"x_min":68,"x_max":848,"o":"m 461 678 q 271 441 271 678 q 461 203 271 203 q 644 441 644 203 q 461 678 644 678 m 461 882 q 848 441 848 882 q 461 0 848 0 q 68 441 68 0 q 461 882 68 882 m 390 1153 l 390 949 l 186 949 l 186 1153 l 390 1153 m 729 1153 l 729 949 l 526 949 l 526 1153 l 729 1153 z "},"ù":{"ha":712,"x_min":68,"x_max":712,"o":"m 509 882 l 712 882 l 712 339 q 393 0 712 0 q 68 339 68 0 l 68 882 l 271 882 l 271 339 q 393 203 271 203 q 509 339 509 203 l 509 882 m 300 949 l 232 1153 l 435 1153 l 469 949 l 300 949 z "},"ú":{"ha":712,"x_min":68,"x_max":712,"o":"m 509 882 l 712 882 l 712 339 q 393 0 712 0 q 68 339 68 0 l 68 882 l 271 882 l 271 339 q 393 203 271 203 q 509 339 509 203 l 509 882 m 311 949 l 345 1153 l 548 1153 l 480 949 l 311 949 z "},"û":{"ha":712,"x_min":68,"x_max":712,"o":"m 509 882 l 712 882 l 712 339 q 393 0 712 0 q 68 339 68 0 l 68 882 l 271 882 l 271 339 q 393 203 271 203 q 509 339 509 203 l 509 882 m 492 1153 l 627 949 l 458 949 l 390 1051 l 322 949 l 153 949 l 288 1153 l 492 1153 z "},"ü":{"ha":712,"x_min":68,"x_max":712,"o":"m 509 882 l 712 882 l 712 339 q 393 0 712 0 q 68 339 68 0 l 68 882 l 271 882 l 271 339 q 393 203 271 203 q 509 339 509 203 l 509 882 m 322 1153 l 322 949 l 119 949 l 119 1153 l 322 1153 m 661 1153 l 661 949 l 458 949 l 458 1153 l 661 1153 z "},"ý":{"ha":712,"x_min":68,"x_max":712,"o":"m 271 644 q 373 543 271 543 l 407 543 q 509 644 509 543 l 509 882 l 712 882 l 712 644 q 495 339 712 373 l 495 0 l 292 0 l 292 339 q 68 644 68 373 l 68 882 l 271 882 l 271 644 m 311 949 l 345 1153 l 548 1153 l 480 949 l 311 949 z "},"ÿ":{"ha":712,"x_min":68,"x_max":712,"o":"m 271 644 q 373 543 271 543 l 407 543 q 509 644 509 543 l 509 882 l 712 882 l 712 644 q 495 339 712 373 l 495 0 l 292 0 l 292 339 q 68 644 68 373 l 68 882 l 271 882 l 271 644 m 322 1153 l 322 949 l 119 949 l 119 1153 l 322 1153 m 661 1153 l 661 949 l 458 949 l 458 1153 l 661 1153 z "},"ı":{"ha":271,"x_min":68,"x_max":271,"o":"m 271 882 l 271 0 l 68 0 l 68 882 l 271 882 z "},"Œ":{"ha":1053,"x_min":68,"x_max":1053,"o":"m 1033 882 l 1053 678 l 714 678 l 714 543 l 985 543 l 985 339 l 714 339 l 714 203 l 1053 203 l 1033 0 l 511 0 l 511 882 l 1033 882 m 576 678 l 475 678 q 271 475 271 678 l 271 407 q 475 203 271 203 l 576 203 l 576 0 l 475 0 q 68 407 68 0 l 68 475 q 475 882 68 882 l 576 882 l 576 678 z "},"œ":{"ha":1053,"x_min":68,"x_max":1053,"o":"m 1033 882 l 1053 678 l 714 678 l 714 543 l 985 543 l 985 339 l 714 339 l 714 203 l 1053 203 l 1033 0 l 511 0 l 511 882 l 1033 882 m 576 678 l 475 678 q 271 475 271 678 l 271 407 q 475 203 271 203 l 576 203 l 576 0 l 475 0 q 68 407 68 0 l 68 475 q 475 882 68 882 l 576 882 l 576 678 z "},"Š":{"ha":678,"x_min":68,"x_max":678,"o":"m 88 0 l 68 203 l 407 203 q 475 271 475 203 q 407 339 475 339 l 339 339 q 68 610 68 339 q 339 882 68 882 l 624 882 l 644 678 l 339 678 q 271 610 271 678 q 339 543 271 543 l 407 543 q 678 271 678 543 q 407 0 678 0 l 88 0 m 271 949 l 136 1153 l 305 1153 l 373 1051 l 441 1153 l 610 1153 l 475 949 l 271 949 z "},"š":{"ha":678,"x_min":68,"x_max":678,"o":"m 88 0 l 68 203 l 407 203 q 475 271 475 203 q 407 339 475 339 l 339 339 q 68 610 68 339 q 339 882 68 882 l 624 882 l 644 678 l 339 678 q 271 610 271 678 q 339 543 271 543 l 407 543 q 678 271 678 543 q 407 0 678 0 l 88 0 m 271 949 l 136 1153 l 305 1153 l 373 1051 l 441 1153 l 610 1153 l 475 949 l 271 949 z "},"Ÿ":{"ha":712,"x_min":68,"x_max":712,"o":"m 271 644 q 373 543 271 543 l 407 543 q 509 644 509 543 l 509 882 l 712 882 l 712 644 q 495 339 712 373 l 495 0 l 292 0 l 292 339 q 68 644 68 373 l 68 882 l 271 882 l 271 644 m 322 1153 l 322 949 l 119 949 l 119 1153 l 322 1153 m 661 1153 l 661 949 l 458 949 l 458 1153 l 661 1153 z "},"Ž":{"ha":644,"x_min":68,"x_max":644,"o":"m 644 882 l 644 678 l 305 203 l 644 203 l 644 0 l 68 0 l 68 203 l 407 678 l 88 678 l 109 882 l 644 882 m 254 949 l 119 1153 l 288 1153 l 356 1051 l 424 1153 l 593 1153 l 458 949 l 254 949 z "},"ž":{"ha":644,"x_min":68,"x_max":644,"o":"m 644 882 l 644 678 l 305 203 l 644 203 l 644 0 l 68 0 l 68 203 l 407 678 l 88 678 l 109 882 l 644 882 m 254 949 l 119 1153 l 288 1153 l 356 1051 l 424 1153 l 593 1153 l 458 949 l 254 949 z "},"ˆ":{"ha":543,"x_min":68,"x_max":543,"o":"m 407 1153 l 543 949 l 373 949 l 305 1051 l 237 949 l 68 949 l 203 1153 l 407 1153 z "},"ˇ":{"ha":543,"x_min":68,"x_max":543,"o":"m 203 949 l 68 1153 l 237 1153 l 305 1051 l 373 1153 l 543 1153 l 407 949 l 203 949 z "},"˘":{"ha":475,"x_min":68,"x_max":475,"o":"m 68 1153 l 203 1153 q 271 1085 203 1085 q 339 1153 339 1085 l 475 1153 q 271 949 475 949 q 68 1153 68 949 z "},"˙":{"ha":271,"x_min":68,"x_max":271,"o":"m 271 1153 l 271 949 l 68 949 l 68 1153 l 271 1153 z "},"˚":{"ha":407,"x_min":68,"x_max":407,"o":"m 237 1289 q 357 1239 308 1289 q 407 1119 407 1190 q 357 999 407 1048 q 237 949 308 949 q 117 999 167 949 q 68 1119 68 1048 q 117 1239 68 1190 q 237 1289 167 1289 m 237 1166 q 203 1152 217 1166 q 189 1119 189 1139 q 203 1086 189 1099 q 237 1072 217 1072 q 272 1086 258 1072 q 286 1119 286 1099 q 272 1152 286 1139 q 237 1166 258 1166 z "},"˛":{"ha":305,"x_min":68,"x_max":305,"o":"m 237 -68 l 305 -271 l 102 -271 l 68 -68 l 237 -68 z "},"˜":{"ha":576,"x_min":68,"x_max":576,"o":"m 68 949 q 237 1153 68 1153 q 336 1112 292 1153 q 414 1072 380 1072 q 475 1153 461 1072 l 576 1153 q 407 949 576 949 q 312 990 359 949 q 231 1031 264 1031 q 170 949 183 1031 l 68 949 z "},"˝":{"ha":576,"x_min":68,"x_max":576,"o":"m 68 949 l 102 1153 l 305 1153 l 237 949 l 68 949 m 339 949 l 373 1153 l 576 1153 l 509 949 l 339 949 z "},"–":{"ha":441,"x_min":68,"x_max":441,"o":"m 68 509 l 441 509 l 441 305 l 68 305 l 68 509 z "},"—":{"ha":576,"x_min":68,"x_max":576,"o":"m 68 509 l 576 509 l 576 305 l 68 305 l 68 509 z "},"‘":{"ha":271,"x_min":68,"x_max":271,"o":"m 203 678 q 271 543 203 610 l 203 475 q 68 746 68 543 l 68 882 l 271 882 l 271 678 l 203 678 z "},"’":{"ha":271,"x_min":68,"x_max":271,"o":"m 136 678 l 68 678 l 68 882 l 271 882 l 271 746 q 136 475 271 543 l 68 543 q 136 678 136 610 z "},"‚":{"ha":271,"x_min":68,"x_max":271,"o":"m 136 0 l 68 0 l 68 203 l 271 203 l 271 68 q 136 -203 271 -136 l 68 -136 q 136 0 136 -68 z "},"“":{"ha":543,"x_min":68,"x_max":543,"o":"m 475 678 q 543 543 475 610 l 475 475 q 339 746 339 543 l 339 882 l 543 882 l 543 678 l 475 678 m 203 678 q 271 543 203 610 l 203 475 q 68 746 68 543 l 68 882 l 271 882 l 271 678 l 203 678 z "},"”":{"ha":543,"x_min":68,"x_max":543,"o":"m 136 678 l 68 678 l 68 882 l 271 882 l 271 746 q 136 475 271 543 l 68 543 q 136 678 136 610 m 407 678 l 339 678 l 339 882 l 543 882 l 543 746 q 407 475 543 543 l 339 543 q 407 678 407 610 z "},"„":{"ha":543,"x_min":68,"x_max":543,"o":"m 136 0 l 68 0 l 68 203 l 271 203 l 271 68 q 136 -203 271 -136 l 68 -136 q 136 0 136 -68 m 407 0 l 339 0 l 339 203 l 543 203 l 543 68 q 407 -203 543 -136 l 339 -136 q 407 0 407 -68 z "},"•":{"ha":271,"x_min":68,"x_max":271,"o":"m 68 509 l 271 509 l 271 305 l 68 305 l 68 509 z "},"…":{"ha":882,"x_min":68,"x_max":882,"o":"m 271 203 l 271 0 l 68 0 l 68 203 l 271 203 m 576 203 l 576 0 l 373 0 l 373 203 l 576 203 m 882 203 l 882 0 l 678 0 l 678 203 l 882 203 z "}}}
